<svg width="221" height="67" viewBox="0 0 221 67" fill="none" xmlns="http://www.w3.org/2000/svg">
<g clip-path="url(#clip0_1_64)">
<path d="M37.7156 43.1789C48.4095 35.5078 50.8756 20.6331 43.2007 9.94451C38.4171 3.27214 30.806 -0.191546 23.1523 -0.000299178C18.5601 0.127198 13.9466 1.57217 9.92845 4.44087C-0.744179 12.1332 -3.21037 27.0079 4.46457 37.6965C10.6726 46.3451 21.6216 49.6175 31.2312 46.4726C33.4848 45.7288 35.6746 44.6451 37.7156 43.1789Z" fill="#F8971D"/>
<path d="M51.5986 62.5378C62.2925 54.8667 64.7586 39.9919 57.0837 29.3034C52.3001 22.631 44.689 19.1673 37.0353 19.3798C32.4431 19.5073 27.8296 20.9523 23.8114 23.821C13.1176 31.4921 10.6514 46.3668 18.3263 57.0554C24.5343 65.7252 35.4833 68.9764 45.0929 65.8315C47.3465 65.0877 49.5363 64.004 51.5773 62.5378" fill="#CB2027"/>
<path d="M10.7364 56.1201C13.075 54.4414 13.6278 51.169 11.9482 48.8315C10.9065 47.3653 9.22693 46.6003 7.54738 46.6428C6.54815 46.664 5.52766 46.9828 4.65599 47.6203C2.31736 49.299 1.7646 52.5714 3.44416 54.9089C4.80481 56.8001 7.20721 57.5226 9.31198 56.8426C9.80096 56.6726 10.2899 56.4389 10.7364 56.1201Z" fill="#CB2027"/>
<path d="M54.171 20.3357C55.3404 19.5069 55.5955 17.892 54.7663 16.7232C54.2561 16.0008 53.4269 15.6183 52.5978 15.6395C52.1088 15.6395 51.5986 15.8095 51.1733 16.1283C50.004 16.957 49.7489 18.572 50.5781 19.7407C51.2584 20.6757 52.449 21.0369 53.4907 20.6969C53.7458 20.6119 53.9797 20.5057 54.1923 20.3357" fill="#F8971D"/>
<path d="M92.482 13.961C92.6733 13.451 92.9284 13.0898 93.2899 12.8773C93.63 12.6648 94.119 12.5585 94.7781 12.5585C95.4797 12.5585 95.9686 12.7285 96.2663 13.0685C96.5427 13.4085 96.6915 14.1097 96.6915 15.1722C96.6915 17.0422 96.6915 18.7634 96.7553 20.3784C96.7978 21.9934 96.8191 22.6733 96.8191 22.4821C96.8191 23.3746 96.6702 23.9696 96.3726 24.2883C96.0749 24.6071 95.5222 24.7558 94.7568 24.7558C93.5025 24.7558 92.6946 23.8633 92.3119 22.0784C92.1843 21.5471 92.078 21.1434 91.993 20.8459C91.6316 19.4222 90.7599 18.2534 89.3992 17.3609C88.0386 16.4685 86.4228 16.001 84.5732 16.001C81.214 16.001 78.514 17.2334 76.473 19.6984C74.432 22.1633 73.4115 25.457 73.4115 29.6007C73.4115 33.7444 74.4533 37.0381 76.5155 39.503C78.5778 41.968 81.2991 43.2005 84.6795 43.2005C85.785 43.2005 86.9118 43.0517 88.0386 42.733C89.1866 42.4142 90.2922 41.9467 91.3977 41.3305C91.9079 41.0755 92.6095 40.608 93.5025 39.9705C94.3954 39.333 95.0332 39.0143 95.4159 39.0143C96.0112 39.0143 96.5002 39.2055 96.9041 39.6093C97.308 39.9918 97.5206 40.4805 97.5206 41.0542C97.5206 41.628 97.2868 42.1805 96.8403 42.6905C96.3938 43.2217 95.5647 43.8592 94.3529 44.6242C92.7584 45.6654 91.1426 46.4304 89.5268 46.9404C87.911 47.4291 86.2102 47.6841 84.4243 47.6841C79.7258 47.6841 75.8565 46.0267 72.795 42.7117C69.7335 39.3968 68.2028 35.1469 68.2028 29.9832C68.2028 24.8195 69.7548 20.6334 72.8588 17.2334C75.9628 13.8548 79.8534 12.1548 84.5519 12.1548C85.8063 12.1548 87.0819 12.3035 88.3787 12.601C89.6756 12.8985 91.0575 13.366 92.5032 13.961" fill="black"/>
<path d="M117.314 42.7968H119.249C120.354 42.7968 121.141 42.9456 121.587 43.2643C122.055 43.5618 122.268 44.0718 122.268 44.773C122.268 45.538 122.076 46.0693 121.672 46.3668C121.268 46.6643 120.524 46.8343 119.419 46.8343H109.83C109.192 46.8343 108.682 46.6643 108.342 46.303C108.002 45.9418 107.832 45.453 107.832 44.773C107.832 44.0718 108.023 43.5618 108.406 43.2643C108.789 42.9668 109.405 42.7968 110.298 42.7968H112.892V16.8511H111.233C109.809 16.8511 108.895 16.7236 108.47 16.4473C108.044 16.1923 107.832 15.6823 107.832 14.9386C107.832 14.3011 108.002 13.8124 108.342 13.4936C108.682 13.1749 109.171 13.0049 109.83 13.0049H121.864C124.776 13.0049 126.945 13.1536 128.369 13.4086C129.794 13.6849 131.027 14.1524 132.005 14.8111C133.28 15.6611 134.28 16.7873 135.024 18.211C135.768 19.6348 136.129 21.1222 136.129 22.7372C136.129 24.9259 135.449 26.7959 134.109 28.3683C132.77 29.9408 130.899 31.0245 128.518 31.6408C129.007 31.917 129.453 32.257 129.836 32.6395C130.219 33.022 130.602 33.4683 130.963 33.9995L136.703 42.7756H137.639C138.702 42.7756 139.446 42.9243 139.828 43.2218C140.232 43.5193 140.424 44.0293 140.424 44.7518C140.424 45.4105 140.254 45.9205 139.935 46.2818C139.595 46.643 139.106 46.813 138.468 46.813H135.236C134.301 46.813 133.387 46.133 132.494 44.7518C132.387 44.6455 132.302 44.5393 132.239 44.4755L126.753 36.1882C125.627 34.4882 124.712 33.4045 123.968 32.9158C123.246 32.427 122.268 32.172 121.077 32.172H117.293V42.7968H117.314ZM117.314 16.8511V28.3683H123.224C125.882 28.3683 127.88 27.8796 129.22 26.9234C130.559 25.9671 131.239 24.5434 131.239 22.631C131.239 20.7185 130.58 19.2735 129.262 18.296C127.944 17.3186 125.988 16.8511 123.394 16.8511H117.314Z" fill="black"/>
<path d="M151.543 17.1273H151.075C149.927 17.1273 149.162 16.9786 148.715 16.6811C148.29 16.3836 148.077 15.8523 148.077 15.0873C148.077 14.3861 148.248 13.8761 148.609 13.5361C148.97 13.1961 149.502 13.0261 150.225 13.0261H157.347C158.878 13.0261 159.856 13.1749 160.281 13.4724C160.706 13.7699 160.897 14.3011 160.897 15.0873C160.897 15.8736 160.642 16.3836 160.153 16.6811C159.664 16.9786 158.729 17.1273 157.326 17.1273H156.093V32.7458C156.093 34.8495 156.199 36.3794 156.39 37.3569C156.582 38.3132 156.922 39.1844 157.368 39.9919C158.027 41.1394 158.963 42.0531 160.153 42.6906C161.344 43.3281 162.662 43.6681 164.108 43.6681C166.829 43.6681 168.806 42.8393 170.061 41.2244C171.294 39.5881 171.931 36.9532 171.931 33.2983V17.1273H170.422C168.934 17.1273 167.935 16.9786 167.446 16.6811C166.935 16.3836 166.68 15.8523 166.68 15.0661C166.68 14.2799 166.871 13.7486 167.275 13.4511C167.679 13.1536 168.509 13.0049 169.763 13.0049H177.438C178.118 13.0049 178.65 13.1749 178.99 13.5149C179.351 13.8549 179.521 14.3649 179.521 15.0448C179.521 15.8098 179.309 16.3411 178.905 16.6386C178.48 16.9361 177.714 17.0848 176.63 17.0848H176.226V33.872C176.226 38.4832 175.184 41.9468 173.122 44.263C171.06 46.5793 167.956 47.7267 163.81 47.7267C160.068 47.7267 157.071 46.5793 154.838 44.263C152.606 41.9468 151.479 38.8444 151.479 34.9345V17.0848L151.543 17.1273Z" fill="black"/>
<path d="M192.044 17.1273C191.236 17.0848 190.64 16.9148 190.279 16.5961C189.918 16.2773 189.747 15.7673 189.747 15.0661C189.747 14.4074 189.918 13.8974 190.236 13.5361C190.577 13.1749 191.066 13.0049 191.703 13.0049H198.889C199.591 13.0049 200.122 13.1749 200.505 13.5361C200.867 13.8974 201.058 14.3861 201.058 15.0661C201.058 15.7461 200.824 16.2136 200.356 16.5748C199.889 16.9361 199.23 17.1061 198.379 17.1061H197.55L204.013 26.2646L210.753 17.1061H209.86C208.945 17.1061 208.244 16.9148 207.712 16.5536C207.202 16.1923 206.947 15.6823 206.947 15.0661C206.947 14.4499 207.138 13.9399 207.542 13.5786C207.946 13.2174 208.478 13.0261 209.158 13.0261H216.344C216.982 13.0261 217.471 13.1961 217.811 13.5574C218.151 13.9186 218.321 14.4074 218.321 15.0873C218.321 15.8098 218.13 16.3411 217.726 16.6598C217.343 16.9786 216.705 17.1486 215.813 17.1486L206.713 29.4733L216.642 42.8393C217.471 42.9031 218.087 43.0943 218.491 43.4131C218.895 43.7318 219.087 44.1993 219.087 44.8155C219.087 45.4318 218.895 45.9418 218.513 46.3243C218.13 46.6855 217.62 46.8768 216.982 46.8768H209.328C208.329 46.8768 207.67 46.728 207.33 46.4305C206.99 46.133 206.819 45.6018 206.819 44.8368C206.819 44.0718 207.032 43.5831 207.436 43.3068C207.861 43.0306 208.669 42.8818 209.881 42.8818H211.05L203.737 32.8095L196.551 42.8818H197.826C199.145 42.8818 200.016 43.0306 200.484 43.3068C200.952 43.5831 201.164 44.1143 201.164 44.8368C201.164 45.5593 200.973 46.133 200.611 46.4305C200.25 46.728 199.57 46.8768 198.592 46.8768H191.002C190.343 46.8768 189.833 46.6855 189.45 46.3243C189.067 45.9418 188.876 45.453 188.876 44.8155C188.876 44.1781 189.067 43.6893 189.471 43.3706C189.875 43.0518 190.513 42.8818 191.385 42.8606L201.015 29.6646L191.916 17.1698L192.044 17.1273Z" fill="black"/>
<path d="M80.4062 52.6138L79.7258 53.1238C79.3644 52.6351 78.9179 52.2738 78.3864 52.0401C77.8762 51.7851 77.3022 51.6576 76.6856 51.6576C76.0053 51.6576 75.3887 51.8276 74.7935 52.1463C74.2194 52.4651 73.773 52.9113 73.4541 53.4638C73.1352 54.0163 72.9863 54.6325 72.9863 55.3125C72.9863 56.3538 73.3478 57.225 74.0494 57.905C74.7509 58.6062 75.6651 58.9462 76.7494 58.9462C77.94 58.9462 78.9392 58.4787 79.7471 57.5437L80.4274 58.0537C80.0022 58.585 79.4707 59.01 78.8329 59.3075C78.1951 59.605 77.4935 59.7537 76.7069 59.7537C75.2187 59.7537 74.0494 59.265 73.1777 58.2662C72.4548 57.4375 72.0934 56.4175 72.0934 55.2275C72.0934 53.9738 72.5399 52.9326 73.4115 52.0826C74.2832 51.2326 75.3675 50.8076 76.6856 50.8076C77.4722 50.8076 78.1951 50.9564 78.8329 51.2751C79.4707 51.5939 80.0022 52.0188 80.4062 52.5926" fill="black"/>
<path d="M81.6605 53.2301H82.4897V54.1438C82.7448 53.7825 82.9999 53.5063 83.2763 53.3363C83.5527 53.1663 83.8291 53.0601 84.1267 53.0601C84.3606 53.0601 84.5944 53.1238 84.8495 53.2726L84.4243 53.9525C84.2543 53.8888 84.1054 53.8463 83.9991 53.8463C83.7228 53.8463 83.4676 53.9525 83.2125 54.1863C82.9574 54.3988 82.766 54.76 82.6385 55.2275C82.5322 55.5888 82.4897 56.3112 82.4897 57.395V59.5199H81.6605V53.2301Z" fill="black"/>
<path d="M90.7811 57.4375L91.4615 57.7987C91.2489 58.2449 90.9725 58.5849 90.6748 58.8612C90.3772 59.1374 90.0583 59.3287 89.6756 59.4774C89.3142 59.6262 88.889 59.6899 88.4425 59.6899C87.422 59.6899 86.6141 59.3499 86.0401 58.6912C85.4661 58.0112 85.1684 57.2675 85.1684 56.4175C85.1684 55.61 85.4236 54.9088 85.9126 54.2925C86.5291 53.5063 87.3583 53.1025 88.4 53.1025C89.4418 53.1025 90.3347 53.5063 90.9725 54.3138C91.4402 54.8875 91.6528 55.61 91.6741 56.46H86.0189C86.0189 57.1825 86.274 57.7987 86.7204 58.2662C87.1669 58.7337 87.7197 58.9674 88.4 58.9674C88.7189 58.9674 89.0378 58.9037 89.3355 58.7974C89.6331 58.6912 89.8882 58.5424 90.1008 58.3512C90.3134 58.1599 90.5473 57.8625 90.7811 57.4587M90.7811 55.7587C90.6748 55.3337 90.526 54.9725 90.3134 54.7175C90.1008 54.4625 89.8244 54.25 89.4843 54.1013C89.1441 53.9525 88.7827 53.8675 88.4213 53.8675C87.8047 53.8675 87.2732 54.0588 86.8267 54.4625C86.5078 54.76 86.2527 55.185 86.0826 55.7587H90.7811Z" fill="black"/>
<path d="M99.4553 53.2303V59.5202H98.6474V58.4364C98.3073 58.8402 97.9246 59.1589 97.4994 59.3714C97.0742 59.5839 96.6064 59.6902 96.1175 59.6902C95.2245 59.6902 94.4592 59.3714 93.8426 58.7127C93.2261 58.0539 92.9072 57.289 92.9072 56.354C92.9072 55.419 93.2261 54.6753 93.8639 54.0378C94.5017 53.4003 95.2671 53.0815 96.16 53.0815C96.6702 53.0815 97.138 53.1878 97.5632 53.4003C97.9884 53.6128 98.3498 53.9528 98.6687 54.399V53.2515H99.4766L99.4553 53.2303ZM96.2238 53.8465C95.7773 53.8465 95.3521 53.9528 94.9694 54.1865C94.5867 54.399 94.2891 54.7178 94.0552 55.1215C93.8214 55.5252 93.7151 55.9502 93.7151 56.3965C93.7151 56.8427 93.8214 57.2677 94.0552 57.6715C94.2891 58.0752 94.5867 58.3939 94.9694 58.6064C95.3521 58.8402 95.756 58.9464 96.2025 58.9464C96.649 58.9464 97.0742 58.8402 97.4569 58.6064C97.8608 58.3727 98.1584 58.0752 98.371 57.6927C98.5837 57.3102 98.6899 56.8852 98.6899 56.3965C98.6899 55.674 98.4561 55.0578 97.9671 54.569C97.4781 54.0803 96.9041 53.8253 96.2025 53.8253" fill="black"/>
<path d="M101.985 50.9141H102.793V53.2303H104.069V53.9315H102.793V59.5202H101.985V53.9315H100.88V53.2303H101.985V50.9141Z" fill="black"/>
<path d="M105.578 50.6592C105.77 50.6592 105.918 50.7229 106.046 50.8504C106.174 50.9779 106.237 51.1479 106.237 51.3179C106.237 51.4879 106.174 51.6579 106.046 51.7854C105.918 51.9129 105.77 51.9767 105.578 51.9767C105.387 51.9767 105.238 51.9129 105.111 51.7854C104.983 51.6579 104.919 51.5092 104.919 51.3179C104.919 51.1267 104.983 50.9779 105.111 50.8504C105.238 50.7229 105.408 50.6592 105.578 50.6592ZM105.174 53.2516H105.982V59.5415H105.174V53.2516Z" fill="black"/>
<path d="M107.066 53.2305H107.917L110.043 57.8204L112.126 53.2305H112.998L110.107 59.5204H109.958L107.066 53.2305Z" fill="black"/>
<path d="M119.525 57.4375L120.205 57.7987C119.993 58.2449 119.716 58.5849 119.419 58.8612C119.121 59.1374 118.802 59.3287 118.419 59.4774C118.058 59.6262 117.633 59.6899 117.186 59.6899C116.166 59.6899 115.358 59.3499 114.784 58.6912C114.21 58.0112 113.912 57.2675 113.912 56.4175C113.912 55.61 114.167 54.9088 114.656 54.2925C115.273 53.5063 116.102 53.1025 117.144 53.1025C118.186 53.1025 119.078 53.5063 119.716 54.3138C120.184 54.8875 120.397 55.61 120.418 56.46H114.763C114.763 57.1825 115.018 57.7987 115.464 58.2662C115.911 58.7337 116.463 58.9674 117.144 58.9674C117.463 58.9674 117.782 58.9037 118.079 58.7974C118.377 58.6912 118.632 58.5424 118.845 58.3512C119.057 58.1599 119.291 57.8625 119.525 57.4587M119.525 55.7587C119.419 55.3337 119.27 54.9725 119.057 54.7175C118.845 54.4625 118.568 54.25 118.228 54.1013C117.888 53.9525 117.526 53.8675 117.165 53.8675C116.549 53.8675 116.017 54.0588 115.571 54.4625C115.252 54.76 114.997 55.185 114.826 55.7587H119.525Z" fill="black"/>
<path d="M124.457 57.9477L125.18 57.5227C125.69 58.4577 126.286 58.9252 126.945 58.9252C127.221 58.9252 127.498 58.8614 127.753 58.7339C128.008 58.6064 128.199 58.4152 128.327 58.2027C128.454 57.9902 128.518 57.7352 128.518 57.5015C128.518 57.2252 128.412 56.9277 128.22 56.6727C127.965 56.2902 127.476 55.844 126.753 55.3127C126.052 54.7815 125.605 54.399 125.435 54.144C125.138 53.7403 124.989 53.3153 124.989 52.8478C124.989 52.4866 125.074 52.1466 125.244 51.8491C125.414 51.5516 125.669 51.2966 125.988 51.1266C126.307 50.9566 126.647 50.8716 127.03 50.8716C127.434 50.8716 127.795 50.9778 128.157 51.1691C128.497 51.3603 128.879 51.7216 129.262 52.2741L128.561 52.8053C128.242 52.3803 127.965 52.1041 127.753 51.9766C127.519 51.8491 127.285 51.7853 127.009 51.7853C126.668 51.7853 126.392 51.8916 126.158 52.1041C125.946 52.3166 125.839 52.5715 125.839 52.869C125.839 53.0603 125.882 53.2303 125.967 53.4003C126.052 53.5703 126.179 53.7615 126.392 53.974C126.498 54.0803 126.86 54.3565 127.498 54.824C128.242 55.3765 128.731 55.844 129.007 56.269C129.283 56.694 129.411 57.119 129.411 57.544C129.411 58.1602 129.177 58.6914 128.709 59.1589C128.242 59.6052 127.668 59.8389 127.009 59.8389C126.498 59.8389 126.031 59.7114 125.605 59.4352C125.18 59.1589 124.797 58.6914 124.436 58.0539" fill="black"/>
<path d="M134.067 53.0815C135.045 53.0815 135.832 53.4428 136.469 54.144C137.043 54.7815 137.341 55.5465 137.341 56.4177C137.341 57.289 137.043 58.0539 136.427 58.7127C135.81 59.3714 135.024 59.6902 134.067 59.6902C133.11 59.6902 132.302 59.3714 131.707 58.7127C131.091 58.0539 130.793 57.289 130.793 56.4177C130.793 55.5465 131.069 54.8028 131.665 54.144C132.302 53.4428 133.11 53.0815 134.088 53.0815M134.088 53.8678C133.408 53.8678 132.834 54.1228 132.345 54.6115C131.856 55.1003 131.622 55.7165 131.622 56.4177C131.622 56.864 131.728 57.289 131.962 57.6927C132.175 58.0964 132.472 58.3939 132.855 58.6064C133.238 58.8189 133.642 58.9252 134.088 58.9252C134.535 58.9252 134.939 58.8189 135.321 58.6064C135.704 58.3939 136.002 58.0964 136.214 57.6927C136.427 57.3102 136.533 56.8852 136.533 56.4177C136.533 55.7165 136.299 55.1215 135.81 54.6115C135.321 54.1228 134.747 53.8678 134.088 53.8678Z" fill="black"/>
<path d="M139.531 50.8076H138.723V59.52H139.531V50.8076Z" fill="black"/>
<path d="M141.125 53.2305H141.933V56.1629C141.933 56.8854 141.976 57.3741 142.061 57.6504C142.167 58.0329 142.401 58.3516 142.72 58.5641C143.039 58.7766 143.443 58.9041 143.889 58.9041C144.336 58.9041 144.718 58.7979 145.037 58.5854C145.356 58.3729 145.569 58.0754 145.696 57.7354C145.781 57.4804 145.824 56.9704 145.824 56.1842V53.2517H146.653V56.3329C146.653 57.2041 146.547 57.8629 146.355 58.2879C146.143 58.7341 145.845 59.0741 145.441 59.3291C145.037 59.5841 144.527 59.7116 143.91 59.7116C143.294 59.7116 142.784 59.5841 142.38 59.3291C141.976 59.0741 141.657 58.7341 141.466 58.2879C141.253 57.8416 141.168 57.1616 141.168 56.2692V53.2305H141.125Z" fill="black"/>
<path d="M149.119 50.9141H149.948V53.2303H151.224V53.9315H149.948V59.5202H149.119V53.9315H148.035V53.2303H149.119V50.9141Z" fill="black"/>
<path d="M152.712 50.6592C152.904 50.6592 153.052 50.7229 153.18 50.8504C153.307 50.9779 153.371 51.1479 153.371 51.3179C153.371 51.4879 153.307 51.6579 153.18 51.7854C153.052 51.9129 152.882 51.9767 152.712 51.9767C152.542 51.9767 152.372 51.9129 152.244 51.7854C152.117 51.6579 152.053 51.5092 152.053 51.3179C152.053 51.1267 152.117 50.9779 152.244 50.8504C152.372 50.7229 152.542 50.6592 152.712 50.6592ZM152.308 53.2516H153.116V59.5415H152.308V53.2516Z" fill="black"/>
<path d="M157.793 53.0815C158.771 53.0815 159.558 53.4428 160.196 54.144C160.77 54.7815 161.067 55.5465 161.067 56.4177C161.067 57.289 160.77 58.0539 160.153 58.7127C159.537 59.3714 158.75 59.6902 157.793 59.6902C156.837 59.6902 156.029 59.3714 155.433 58.7127C154.817 58.0539 154.519 57.289 154.519 56.4177C154.519 55.5465 154.817 54.8028 155.391 54.144C156.029 53.4428 156.837 53.0815 157.815 53.0815M157.815 53.8678C157.134 53.8678 156.56 54.1228 156.071 54.6115C155.582 55.1003 155.348 55.7165 155.348 56.4177C155.348 56.864 155.455 57.289 155.689 57.6927C155.901 58.0964 156.199 58.3939 156.582 58.6064C156.964 58.8189 157.368 58.9252 157.815 58.9252C158.261 58.9252 158.665 58.8189 159.048 58.6064C159.43 58.3939 159.728 58.0964 159.941 57.6927C160.153 57.3102 160.26 56.8852 160.26 56.4177C160.26 55.7165 160.026 55.1215 159.537 54.6115C159.048 54.1228 158.474 53.8678 157.815 53.8678Z" fill="black"/>
<path d="M162.556 53.2301H163.364V54.3563C163.682 53.9313 164.044 53.6126 164.427 53.3788C164.83 53.1663 165.256 53.0601 165.723 53.0601C166.191 53.0601 166.616 53.1876 166.978 53.4213C167.339 53.655 167.616 53.9738 167.786 54.3775C167.956 54.7813 168.041 55.4188 168.041 56.2687V59.4987H167.233V56.5025C167.233 55.78 167.212 55.2913 167.148 55.0575C167.063 54.6325 166.871 54.335 166.616 54.1225C166.361 53.91 166 53.8038 165.575 53.8038C165.086 53.8038 164.639 53.9738 164.256 54.2925C163.874 54.6113 163.619 55.015 163.491 55.5038C163.406 55.8225 163.385 56.3962 163.385 57.225V59.5412H162.577V53.2513L162.556 53.2301Z" fill="black"/>
<path d="M172.952 53.9313L172.42 54.4625C171.995 54.0375 171.57 53.825 171.145 53.825C170.89 53.825 170.656 53.91 170.464 54.08C170.273 54.25 170.188 54.4625 170.188 54.6963C170.188 54.9088 170.273 55.1 170.422 55.2913C170.571 55.4825 170.911 55.695 171.4 55.95C171.995 56.2688 172.42 56.5662 172.633 56.8425C172.846 57.14 172.952 57.4587 172.952 57.8412C172.952 58.3512 172.761 58.7975 172.399 59.1587C172.038 59.5199 171.591 59.6899 171.038 59.6899C170.677 59.6899 170.337 59.6049 169.997 59.4562C169.657 59.3074 169.401 59.0737 169.168 58.7975L169.678 58.2237C170.082 58.6912 170.528 58.9249 170.996 58.9249C171.315 58.9249 171.591 58.8187 171.825 58.6062C172.059 58.3937 172.165 58.16 172.165 57.8625C172.165 57.6287 172.08 57.4162 171.931 57.2462C171.783 57.0762 171.442 56.8425 170.911 56.5662C170.337 56.2688 169.954 55.9925 169.742 55.695C169.529 55.4188 169.444 55.0788 169.444 54.7175C169.444 54.2288 169.614 53.8463 169.933 53.5276C170.252 53.2088 170.677 53.0601 171.166 53.0601C171.74 53.0601 172.335 53.3363 172.909 53.91" fill="black"/>
<path d="M177.799 51.0205H179.5C180.478 51.0205 181.116 51.063 181.477 51.148C181.966 51.2755 182.37 51.5092 182.668 51.8917C182.965 52.253 183.136 52.7417 183.136 53.2942C183.136 53.8467 182.987 54.3354 182.689 54.6967C182.391 55.0579 181.966 55.3129 181.435 55.4404C181.052 55.5254 180.329 55.5679 179.266 55.5679H178.671V59.5203H177.82V51.0205H177.799ZM178.65 51.8492V54.7392H180.095C180.669 54.7392 181.095 54.6967 181.371 54.5904C181.647 54.4842 181.86 54.3142 182.009 54.0805C182.158 53.8467 182.243 53.5705 182.243 53.2942C182.243 53.018 182.158 52.7417 182.009 52.508C181.86 52.2742 181.647 52.1042 181.392 51.998C181.137 51.8917 180.733 51.8492 180.159 51.8492H178.65Z" fill="black"/>
<path d="M184.071 53.2305H184.943L187.047 57.8204L189.131 53.2305H190.003L187.111 59.5204H186.962L184.071 53.2305Z" fill="black"/>
<path d="M191.937 50.9141H192.745V53.2303H194.042V53.9315H192.745V59.5202H191.937V53.9315H190.832V53.2303H191.937V50.9141Z" fill="black"/>
<path d="M196.147 58.2666C196.338 58.2666 196.508 58.3304 196.657 58.4791C196.785 58.6066 196.87 58.7766 196.87 58.9891C196.87 59.2016 196.806 59.3503 196.657 59.4991C196.508 59.6478 196.338 59.7116 196.147 59.7116C195.955 59.7116 195.785 59.6478 195.637 59.4991C195.509 59.3503 195.424 59.1803 195.424 58.9891C195.424 58.7978 195.488 58.6278 195.637 58.4791C195.785 58.3304 195.934 58.2666 196.147 58.2666Z" fill="black"/>
<path d="M201.93 51.0205H202.78V58.7129H206.054V59.5203H201.93V51.0205Z" fill="black"/>
<path d="M207.989 50.9141H208.797V53.2303H210.072V53.9315H208.797V59.5202H207.989V53.9315H206.883V53.2303H207.989V50.9141Z" fill="black"/>
<path d="M217.577 50.8076V59.52H216.769V58.4362C216.429 58.84 216.046 59.1587 215.621 59.3712C215.196 59.5837 214.728 59.69 214.239 59.69C213.346 59.69 212.581 59.3712 211.964 58.7125C211.327 58.075 211.029 57.2887 211.029 56.3538C211.029 55.4188 211.348 54.675 211.986 54.0376C212.623 53.4001 213.389 53.0813 214.282 53.0813C214.792 53.0813 215.26 53.1876 215.685 53.4001C216.11 53.6126 216.472 53.9526 216.79 54.3988V50.8076H217.598H217.577ZM214.346 53.8463C213.899 53.8463 213.474 53.9526 213.091 54.1863C212.709 54.3988 212.411 54.7175 212.177 55.1213C211.943 55.525 211.837 55.95 211.837 56.3963C211.837 56.8425 211.943 57.2675 212.177 57.6712C212.411 58.075 212.709 58.3937 213.091 58.6062C213.474 58.84 213.878 58.9462 214.324 58.9462C214.771 58.9462 215.196 58.84 215.579 58.6062C215.983 58.3725 216.28 58.075 216.493 57.6925C216.705 57.31 216.812 56.885 216.812 56.3963C216.812 55.6738 216.578 55.0575 216.089 54.5688C215.6 54.0801 215.026 53.8251 214.324 53.8251" fill="black"/>
<path d="M220.298 58.2666C220.49 58.2666 220.66 58.3304 220.809 58.4791C220.936 58.6066 221.021 58.7766 221.021 58.9891C221.021 59.2016 220.957 59.3503 220.809 59.4991C220.66 59.6478 220.49 59.7116 220.298 59.7116C220.107 59.7116 219.937 59.6478 219.788 59.4991C219.661 59.3503 219.576 59.1803 219.576 58.9891C219.576 58.7978 219.639 58.6278 219.788 58.4791C219.937 58.3304 220.086 58.2666 220.298 58.2666Z" fill="black"/>
</g>
<defs>
<clipPath id="clip0_1_64">
<rect width="221" height="67" fill="white"/>
</clipPath>
</defs>
</svg>
